# xmcd
#
# Track frame offsets:
#	150
#	18799
#	39292
#	68588
#	95103
#	113532
#	132027
#	154270
#	189261
#	204647
#
# Disc length: 3000 seconds
#
# Revision: 1
# Processed by: cddbd v1.5.2PL0 Copyright (c) Steve Scherf et al.
# Submitted via: audiograbber 1.83.01
#
DISCID=760bb60a
DTITLE=Killer Kane and the Blue FO's - Live at Chan's
DYEAR=2010
DGENRE=Blues
TTITLE0=Long as I Can See The Light
TTITLE1=Nasty Habits
TTITLE2=Tinker Child (featuring Andy Solberg)
TTITLE3=Women Have a Way With a Fool
TTITLE4=Back In a Cadillac
TTITLE5=Just Enough
TTITLE6=Roll the Dice
TTITLE7=Jewel City Blues
TTITLE8=Good Good Lovin'
TTITLE9=Jimmy Smith
EXTD=
EXTT0=
EXTT1=
EXTT2=
EXTT3=
EXTT4=
EXTT5=
EXTT6=
EXTT7=
EXTT8=
EXTT9=
PLAYORDER=
